<svg width="141" height="70" viewBox="0 0 141 70" fill="none" xmlns="http://www.w3.org/2000/svg">
<path fill-rule="evenodd" clip-rule="evenodd" d="M113.465 17.6405L96.6376 17.5373V6.1478C96.6376 4.45027 95.9427 2.91332 94.8489 1.81222C93.7438 0.699656 92.2285 0 90.5309 0H27.2301C25.5439 0 24.0172 0.699656 22.9235 1.80075C21.8183 2.91332 21.1347 4.4388 21.1347 6.13633C21.1347 7.07685 21.8639 7.79944 22.7867 7.79944C23.7096 7.79944 24.4388 7.06538 24.4388 6.13633C24.4388 5.36785 24.7464 4.64526 25.2705 4.15206C25.7832 3.63592 26.4781 3.31476 27.2415 3.31476H90.5423C91.3056 3.31476 91.9892 3.62445 92.5133 4.15206C93.026 4.6682 93.345 5.36785 93.345 6.13633V58.3238H80.277C79.3427 58.3238 78.625 59.0578 78.625 59.9869C78.625 60.893 79.3541 61.65 80.277 61.65H94.9856C95.9199 61.65 96.6376 60.9159 96.6376 59.9869V58.0714H106.641C107.404 40.7062 132.128 38.3205 134.645 58.0714H140.091C140.809 54.2176 140.547 49.7215 139.545 44.7665C138.382 38.9857 138.724 40.1098 133.358 38.0338L122.421 33.1018L113.465 17.6405ZM21.4651 36.0839C22.388 36.0839 23.1285 36.8409 23.1285 37.7585C23.1285 38.6875 22.3766 39.4331 21.4651 39.4331H9.63896C8.71611 39.4331 7.97554 38.6761 7.97554 37.7585C7.97554 36.8294 8.7275 36.0839 9.63896 36.0839H21.4651ZM21.4651 25.1073C22.388 25.1073 23.1285 25.8643 23.1285 26.7819C23.1285 27.711 22.3766 28.4565 21.4651 28.4565H6.50582C5.58297 28.4565 4.84241 27.6995 4.84241 26.7819C4.84241 25.8529 5.59436 25.1073 6.50582 25.1073H21.4651ZM21.4651 14.1308C22.388 14.1308 23.1285 14.8878 23.1285 15.8053C23.1285 16.7344 22.3766 17.4799 21.4651 17.4799H2.165C1.25354 17.4914 0.501587 16.7344 0.501587 15.8168C0.501587 14.8878 1.25354 14.1422 2.165 14.1422H21.4651V14.1308ZM74.6373 13.7637H85.552V18.6269H81.1884V23.2836H85.2672V27.9059H81.1884V33.2623H85.9964V38.1255H74.6373V13.7637ZM60.8515 13.7637H71.7662V18.6269H67.4026V23.2836H71.4814V27.9059H67.4026V33.2623H72.2106V38.1255H60.8515V13.7637ZM43.1578 13.7637H47.7835C50.8711 13.7637 52.956 13.8784 54.0498 14.1078C55.1435 14.3372 56.0322 14.9336 56.7272 15.8742C57.4222 16.8147 57.764 18.3287 57.764 20.4047C57.764 22.2972 57.5247 23.5704 57.0348 24.2242C56.5563 24.8779 55.5878 25.2679 54.1637 25.3941C55.4625 25.7038 56.3284 26.1281 56.7727 26.6443C57.2171 27.1604 57.4905 27.6421 57.6044 28.078C57.7184 28.5138 57.764 29.7182 57.764 31.6795V38.114H51.6914V30.0049C51.6914 28.6974 51.5888 27.8945 51.3724 27.5848C51.1673 27.2751 50.609 27.1145 49.7203 27.1145V38.114H43.1692V13.7637H43.1578ZM49.7089 17.9272V23.3525C50.4381 23.3525 50.9508 23.2607 51.247 23.0542C51.5433 22.8593 51.6914 22.2169 51.6914 21.1503V19.8083C51.6914 19.0283 51.5433 18.5237 51.2698 18.2828C50.9736 18.0419 50.4609 17.9272 49.7089 17.9272ZM29.9303 13.7637H41.0045V18.6269H36.4814V23.2836H40.4918V27.9059H36.4814V38.137H29.9303V13.7637ZM46.1998 58.3352C47.0999 58.3352 47.8518 59.0693 47.8518 59.9984C47.8518 60.9045 47.1227 61.6615 46.1998 61.6615H27.2643C25.5781 61.6615 24.0514 60.9274 22.9576 59.7919C21.8525 58.6449 21.1689 57.0506 21.1689 55.3875V48.7236C21.1689 47.8175 21.8981 47.0605 22.8209 47.0605C23.7552 47.0605 24.4729 47.7945 24.4729 48.7236V55.3875C24.4729 56.1904 24.8147 56.9474 25.3388 57.5094C25.8515 58.0256 26.5123 58.3811 27.2757 58.3811L46.1998 58.3352ZM63.0276 47.4275C56.8183 47.4275 51.8167 52.4971 51.8167 58.7137C51.8167 64.9648 56.8525 70 63.0276 70C69.2369 70 74.2386 64.9304 74.2386 58.7137C74.2386 52.4627 69.2028 47.4275 63.0276 47.4275ZM63.0276 54.3782C60.6464 54.3782 58.721 56.328 58.721 58.7137C58.721 61.1109 60.6578 63.0493 63.0276 63.0493C65.4088 63.0493 67.3343 61.0995 67.3343 58.7137C67.3457 56.3166 65.4088 54.3782 63.0276 54.3782ZM120.643 47.4275C114.434 47.4275 109.432 52.4971 109.432 58.7137C109.432 64.9648 114.468 70 120.643 70C126.852 70 131.854 64.9304 131.854 58.7137C131.854 52.4627 126.818 47.4275 120.643 47.4275ZM120.643 54.3782C118.262 54.3782 116.337 56.328 116.337 58.7137C116.337 61.1109 118.273 63.0493 120.643 63.0493C123.024 63.0493 124.95 61.0995 124.95 58.7137C124.95 56.3166 123.024 54.3782 120.643 54.3782ZM109.159 22.4005L100.808 22.2972V33.1247H114.81L109.159 22.4005Z" fill="white"/>
</svg>
