<svg width="65" height="87" viewBox="0 0 65 87" fill="none" xmlns="http://www.w3.org/2000/svg">
<path fill-rule="evenodd" clip-rule="evenodd" d="M62.1516 79.6305L54.1471 78.1818L50.1759 85.3622C47.2929 88.9664 45.4633 83.0388 44.6594 80.9742L36.932 66.2565C38.7131 65.6336 40.8615 63.835 43.0654 61.8125C47.4662 61.9035 51.569 61.1336 54.5837 57.2565L63.4615 74.5776L64.2308 76.2433C64.8406 78.4058 64.5218 79.8335 62.1516 79.6305ZM32.5035 0.506175C34.0074 0.443189 35.1925 0.968072 36.3914 1.7379C37.9092 2.71068 39.621 4.63525 41.7347 5.85298C44.7079 7.5676 50.2106 5.20213 53.0243 9.42918C54.6668 11.8926 54.7431 13.8242 54.8678 15.7348C54.9995 17.7923 55.3599 19.6889 57.4459 22.4743C60.9042 27.0932 61.6249 30.1656 59.8438 33.3638C58.631 35.5474 56.0737 36.7581 55.4846 38.1438C54.2233 41.0831 55.6163 43.3016 53.8976 46.7309C52.6986 49.1103 50.8551 50.678 48.3948 51.4758C46.3227 52.1476 44.2435 51.1749 42.5802 51.8817C39.6626 53.1204 37.5141 55.9968 35.1925 56.7246C34.2984 57.0046 33.4044 57.1445 32.5104 57.1375C31.6164 57.1445 30.7224 57.0046 29.8283 56.7246C27.5067 55.9968 25.3582 53.1204 22.4405 51.8817C20.7773 51.1749 18.6981 52.1546 16.626 51.4758C14.1657 50.678 12.3222 49.1103 11.1232 46.7309C9.39756 43.3016 10.7906 41.0831 9.53617 38.1438C8.94709 36.7581 6.38978 35.5474 5.17696 33.3638C3.38199 30.1656 4.10275 27.0932 7.56101 22.4813C9.64706 19.6959 10.0074 17.7993 10.1391 15.7418C10.2639 13.8312 10.3401 11.8996 11.9826 9.43618C14.8033 5.20913 20.306 7.5746 23.2722 5.85998C25.386 4.64225 27.0978 2.71768 28.6155 1.7449C29.8075 0.968072 30.9996 0.436191 32.5035 0.506175ZM27.6175 25.5466L31.2352 29.0248L37.4587 22.6352C38.0755 22.0054 38.4636 21.5015 39.219 22.2853L41.6862 24.8327C42.4971 25.6446 42.4555 26.1135 41.6932 26.8693L32.6421 35.8553C31.0342 37.4509 31.3114 37.5489 29.6759 35.9113L23.4593 29.6687C23.1197 29.2978 23.1544 28.9198 23.5286 28.5489L26.3909 25.5536C26.8275 25.0917 27.174 25.1197 27.6175 25.5466ZM32.5035 11.8646C41.7763 11.8646 49.2958 19.4579 49.2958 28.8219C49.2958 38.1858 41.7763 45.7791 32.5035 45.7791C23.2306 45.7791 15.7111 38.1858 15.7111 28.8219C15.7111 19.4509 23.2306 11.8646 32.5035 11.8646ZM2.84835 79.6305L10.8599 78.1818L14.831 85.3622C17.714 88.9664 19.5436 83.0388 20.3476 80.9742L28.075 66.2565C26.2938 65.6336 24.1454 63.835 21.9416 61.8125C17.5408 61.9035 13.438 61.1336 10.4233 57.2565L1.53851 74.5776L0.769238 76.2433C0.159364 78.4058 0.478162 79.8335 2.84835 79.6305Z" fill="white"/>
</svg>
