<svg width="678" height="438" viewBox="0 0 678 438" fill="none" xmlns="http://www.w3.org/2000/svg">
<path opacity="0.9091" d="M339 408.527C526.117 408.527 677.805 393.488 677.805 374.935C677.805 356.383 526.117 341.344 339 341.344C151.883 341.344 0.194824 356.383 0.194824 374.935C0.194824 393.488 151.883 408.527 339 408.527Z" fill="url(#paint0_radial_9_12)"/>
<path d="M559.045 125.656V351.917C559.045 359.831 552.575 366.296 544.653 366.296H187.708C182.084 366.296 177.247 363.094 174.888 358.442C173.86 356.448 173.316 354.273 173.316 351.917V125.656C173.316 117.742 179.786 111.277 187.708 111.277H544.653C550.096 111.277 554.812 114.298 557.231 118.708C558.38 120.763 559.045 123.179 559.045 125.656Z" fill="#5725E5"/>
<path d="M543.09 350.333V127.274L189.349 127.274L189.349 350.333L543.09 350.333Z" fill="#F7F3EB"/>
<path d="M593.27 358.804H139.091V368.652H593.27V358.804Z" fill="url(#paint1_linear_9_12)"/>
<path d="M565.334 375.056H167.027L139.091 368.652H593.27L565.334 375.056Z" fill="url(#paint2_linear_9_12)"/>
<path opacity="0.05" d="M371.169 119.01C371.169 121.79 368.932 124.025 366.15 124.025C363.369 124.025 361.131 121.79 361.131 119.01C361.131 116.231 363.369 113.996 366.15 113.996C368.932 113.996 371.169 116.231 371.169 119.01Z" fill="white"/>
<path d="M368.63 119.01C368.63 120.4 367.541 121.488 366.15 121.488C364.76 121.488 363.671 120.4 363.671 119.01C363.671 117.621 364.76 116.533 366.15 116.533C367.541 116.533 368.63 117.681 368.63 119.01Z" fill="#1F2123"/>
<path opacity="0.18" d="M366.936 119.01C366.936 119.433 366.574 119.735 366.211 119.735C365.848 119.735 365.485 119.373 365.485 119.01C365.485 118.588 365.848 118.285 366.211 118.285C366.574 118.285 366.936 118.588 366.936 119.01Z" fill="white"/>
<path opacity="0.1" d="M557.291 118.708L174.888 358.442C173.86 356.448 173.316 354.273 173.316 351.917V125.656C173.316 117.742 179.786 111.277 187.708 111.277H544.653C550.096 111.277 554.812 114.298 557.291 118.708Z" fill="black"/>
<path d="M191.336 97.5021H123.309L242.855 16.9667H276.959L191.336 97.5021Z" fill="#7743DB"/>
<path d="M259.363 97.5021H191.336L276.959 16.9667H311.124L259.363 97.5021Z" fill="#5725E5"/>
<path d="M327.45 97.5021H259.363L311.124 16.9667H345.289L327.45 97.5021Z" fill="#7743DB"/>
<path d="M399.045 97.5021H327.45L345.289 16.9667H379.453L399.045 97.5021Z" fill="#5725E5"/>
<path d="M467.072 97.5021H399.045L379.453 16.9667H413.558L467.072 97.5021Z" fill="#7743DB"/>
<path d="M603.187 97.5021H535.16L447.722 16.9667H481.887L603.187 97.5021Z" fill="#7743DB"/>
<path d="M535.16 97.5021H467.072L413.558 16.9667H447.722L535.16 97.5021Z" fill="#5725E5"/>
<path d="M191.336 97.5021H123.309V127.952C123.309 133.45 127.783 137.86 133.226 137.86H181.419C186.922 137.86 191.336 133.39 191.336 127.952V97.5021Z" fill="#7743DB"/>
<path d="M259.363 97.5021H191.336V127.952C191.336 133.45 195.811 137.86 201.253 137.86H249.446C254.949 137.86 259.363 133.39 259.363 127.952V97.5021Z" fill="#5725E5"/>
<path d="M327.45 97.5021H259.363V127.952C259.363 133.45 263.838 137.86 269.28 137.86H317.473C322.976 137.86 327.39 133.39 327.39 127.952V97.5021H327.45Z" fill="#7743DB"/>
<path d="M399.045 97.5021H327.45V127.408C327.45 133.148 332.107 137.86 337.912 137.86H388.584C394.329 137.86 399.045 133.208 399.045 127.408V97.5021Z" fill="#5725E5"/>
<path d="M467.072 97.5021H399.045V127.952C399.045 133.45 403.52 137.86 408.962 137.86H457.155C462.658 137.86 467.072 133.39 467.072 127.952V97.5021Z" fill="#7743DB"/>
<path d="M603.187 97.5021H535.16V127.952C535.16 133.45 539.634 137.86 545.077 137.86H593.27C598.773 137.86 603.187 133.39 603.187 127.952V97.5021Z" fill="#7743DB"/>
<path d="M535.16 97.5021H467.072V127.952C467.072 133.45 471.547 137.86 476.989 137.86H525.243C530.746 137.86 535.16 133.39 535.16 127.952V97.5021Z" fill="#5725E5"/>
<path d="M481.827 16.9667H242.795V4.15835C242.795 1.98335 244.548 0.291687 246.665 0.291687H477.896C480.073 0.291687 481.766 2.04377 481.766 4.15835V16.9667H481.827Z" fill="#7743DB"/>
<path d="M312.273 300.321H242.613C233.906 300.321 226.831 293.252 226.831 284.552C226.831 275.852 233.906 268.783 242.613 268.783H312.273C320.98 268.783 328.055 275.852 328.055 284.552C327.995 293.313 320.98 300.321 312.273 300.321Z" fill="#7743DB"/>
<path d="M248.534 284.645C249.094 284.745 249.569 285.04 249.959 285.53C250.349 286.02 250.544 286.575 250.544 287.195C250.544 287.725 250.404 288.205 250.124 288.635C249.854 289.055 249.459 289.39 248.939 289.64C248.419 289.88 247.814 290 247.124 290H242.954V279.575H246.929C247.639 279.575 248.249 279.695 248.759 279.935C249.269 280.175 249.654 280.5 249.914 280.91C250.174 281.31 250.304 281.76 250.304 282.26C250.304 282.86 250.144 283.36 249.824 283.76C249.504 284.16 249.074 284.455 248.534 284.645ZM244.664 283.955H246.779C247.339 283.955 247.774 283.83 248.084 283.58C248.404 283.32 248.564 282.95 248.564 282.47C248.564 282 248.404 281.635 248.084 281.375C247.774 281.105 247.339 280.97 246.779 280.97H244.664V283.955ZM246.974 288.605C247.554 288.605 248.009 288.465 248.339 288.185C248.669 287.905 248.834 287.515 248.834 287.015C248.834 286.505 248.659 286.1 248.309 285.8C247.959 285.5 247.494 285.35 246.914 285.35H244.664V288.605H246.974ZM254.097 279.575V286.22C254.097 287.01 254.302 287.605 254.712 288.005C255.132 288.405 255.712 288.605 256.452 288.605C257.202 288.605 257.782 288.405 258.192 288.005C258.612 287.605 258.822 287.01 258.822 286.22V279.575H260.532V286.19C260.532 287.04 260.347 287.76 259.977 288.35C259.607 288.94 259.112 289.38 258.492 289.67C257.872 289.96 257.187 290.105 256.437 290.105C255.687 290.105 255.002 289.96 254.382 289.67C253.772 289.38 253.287 288.94 252.927 288.35C252.567 287.76 252.387 287.04 252.387 286.19V279.575H254.097ZM270.484 279.575L267.034 286.22V290H265.324V286.22L261.859 279.575H263.764L266.179 284.69L268.594 279.575H270.484ZM284.302 290H282.592L277.447 282.215V290H275.737V279.56H277.447L282.592 287.33V279.56H284.302V290ZM291.303 290.105C290.333 290.105 289.438 289.88 288.618 289.43C287.808 288.97 287.163 288.335 286.683 287.525C286.213 286.705 285.978 285.785 285.978 284.765C285.978 283.745 286.213 282.83 286.683 282.02C287.163 281.21 287.808 280.58 288.618 280.13C289.438 279.67 290.333 279.44 291.303 279.44C292.283 279.44 293.178 279.67 293.988 280.13C294.808 280.58 295.453 281.21 295.923 282.02C296.393 282.83 296.628 283.745 296.628 284.765C296.628 285.785 296.393 286.705 295.923 287.525C295.453 288.335 294.808 288.97 293.988 289.43C293.178 289.88 292.283 290.105 291.303 290.105ZM291.303 288.62C291.993 288.62 292.608 288.465 293.148 288.155C293.688 287.835 294.108 287.385 294.408 286.805C294.718 286.215 294.873 285.535 294.873 284.765C294.873 283.995 294.718 283.32 294.408 282.74C294.108 282.16 293.688 281.715 293.148 281.405C292.608 281.095 291.993 280.94 291.303 280.94C290.613 280.94 289.998 281.095 289.458 281.405C288.918 281.715 288.493 282.16 288.183 282.74C287.883 283.32 287.733 283.995 287.733 284.765C287.733 285.535 287.883 286.215 288.183 286.805C288.493 287.385 288.918 287.835 289.458 288.155C289.998 288.465 290.613 288.62 291.303 288.62ZM311.886 279.575L308.796 290H306.861L304.671 282.11L302.346 290L300.426 290.015L297.471 279.575H299.286L301.446 288.065L303.786 279.575H305.706L307.881 288.02L310.056 279.575H311.886Z" fill="#FBFBFB"/>
<g opacity="0.4">
<path d="M336.521 185.469H218.426V191.39H336.521V185.469Z" fill="#606060"/>
<path d="M336.521 205.467H218.426V211.388H336.521V205.467Z" fill="#606060"/>
<path d="M336.521 225.525H218.426V231.446H336.521V225.525Z" fill="#606060"/>
<path d="M336.521 245.583H218.426V251.504H336.521V245.583Z" fill="#606060"/>
</g>
<path d="M525.727 168.19H365.425V305.94H525.727V168.19Z" fill="#7743DB"/>
<path d="M421.116 265.581L415.674 265.642" stroke="white" stroke-width="1.8533" stroke-miterlimit="10"/>
<path d="M474.691 264.796L469.249 264.917" stroke="white" stroke-width="1.8533" stroke-miterlimit="10"/>
<path d="M458.244 265.038C458.304 268.058 460.784 270.475 463.807 270.415C466.83 270.354 469.249 267.877 469.189 264.856C469.128 261.835 466.649 259.419 463.626 259.419C460.663 259.54 458.244 262.017 458.244 265.038Z" stroke="white" stroke-width="1.8533" stroke-miterlimit="10"/>
<path d="M421.116 265.581C421.177 268.602 423.656 271.019 426.679 270.958C429.703 270.898 432.121 268.421 432.061 265.4C432.001 262.379 429.521 259.963 426.498 259.963C423.535 260.023 421.056 262.56 421.116 265.581Z" stroke="white" stroke-width="1.8533" stroke-miterlimit="10"/>
<path d="M516.294 208.065L491.925 208.427L475.477 253.86L414.646 254.706" stroke="white" stroke-width="1.8533" stroke-miterlimit="10"/>
<path d="M458.244 265.038L432.121 265.4" stroke="white" stroke-width="1.8533" stroke-miterlimit="10"/>
<path d="M482.613 212.113H481.343L412.59 213.079L421.358 247.758L469.854 247.094L482.613 212.113Z" stroke="white" stroke-width="1.8533" stroke-miterlimit="10"/>
<path d="M478.259 224.015L415.795 224.86" stroke="white" stroke-width="1.8533" stroke-miterlimit="10"/>
<path d="M474.087 235.433L418.395 236.219" stroke="white" stroke-width="1.8533" stroke-miterlimit="10"/>
<path d="M427.042 212.898L432.726 247.577" stroke="white" stroke-width="1.8533" stroke-miterlimit="10"/>
<path d="M466.044 212.354L458.667 247.215" stroke="white" stroke-width="1.8533" stroke-miterlimit="10"/>
<path d="M445.304 212.596L445.787 247.396" stroke="white" stroke-width="1.8533" stroke-miterlimit="10"/>
<path opacity="0.5" d="M443.49 399.102C469.037 399.102 489.748 353.821 489.748 297.965C489.748 242.108 469.037 196.827 443.49 196.827C417.942 196.827 397.231 242.108 397.231 297.965C397.231 353.821 417.942 399.102 443.49 399.102Z" fill="url(#paint3_radial_9_12)"/>
<path opacity="0.5" d="M404.548 351.373C372.258 396.988 329.144 421.94 308.282 407.198C287.42 392.456 296.732 343.519 329.023 297.965C361.313 252.41 404.427 227.398 425.289 242.14C446.15 256.881 436.838 305.758 404.548 351.373Z" fill="url(#paint4_radial_9_12)"/>
<path opacity="0.5" d="M598.591 414.206C598.591 408.165 551.063 403.331 492.409 403.331C433.754 403.331 386.226 408.225 386.226 414.206C386.226 414.931 386.951 415.656 388.282 416.321C384.775 416.442 381.267 416.563 377.881 416.683C371.23 411.427 333.135 407.44 287.178 407.44C236.506 407.44 195.448 412.333 195.448 418.315C195.448 424.356 236.506 429.19 287.178 429.19C296.128 429.19 304.775 429.008 312.938 428.767C322.008 433.842 365.304 437.708 417.367 437.708C476.022 437.708 523.55 432.815 523.55 426.833C523.55 426.108 522.824 425.383 521.494 424.719C565.999 423.39 598.591 419.16 598.591 414.206Z" fill="url(#paint5_radial_9_12)"/>
<path d="M430.731 319.352H239.832V417.771H430.731V319.352Z" fill="url(#paint6_linear_9_12)"/>
<path opacity="0.6" d="M347.284 352.883L346.075 348.956L344.684 352.883L343.233 348.956L341.721 352.883L340.209 348.956L338.698 352.883L337.065 348.956L335.553 352.883L334.223 348.956L332.832 352.883L331.381 348.956L329.809 352.883L328.418 348.956L326.906 352.883L325.395 348.956L323.883 352.883V319.352H347.284V352.883Z" fill="#BCBCBC"/>
<g opacity="0.5">
<path d="M273.996 331.496H249.688V355.783H273.996V331.496Z" stroke="#A86B3C" stroke-width="0.6049" stroke-miterlimit="10"/>
<path d="M261.842 346.902C259.968 346.902 258.214 345.513 258.033 343.64L257.065 335.483H266.68L265.712 343.64C265.47 345.513 263.777 346.902 261.842 346.902Z" fill="#A86B3C"/>
<path d="M262.931 350.648H260.814L261.6 345.21H262.084L262.931 350.648Z" fill="#A86B3C"/>
<path d="M265.652 351.856H258.033L260.814 350.648H262.931L265.652 351.856Z" fill="#A86B3C"/>
</g>
<g opacity="0.5">
<path d="M307.556 331.556H283.248V355.844H307.556V331.556Z" stroke="#A86B3C" stroke-width="0.6049" stroke-miterlimit="10"/>
<path d="M303.505 345.271C302.84 341.404 299.454 338.444 295.342 338.444C291.23 338.444 287.904 341.404 287.178 345.271H303.505Z" fill="#A86B3C"/>
<path d="M295.825 343.942V350.89" stroke="#A86B3C" stroke-width="0.4598" stroke-miterlimit="10" stroke-linecap="round" stroke-linejoin="round"/>
<path d="M295.825 350.89C295.825 351.796 295.1 352.581 294.132 352.581C293.225 352.581 292.439 351.856 292.439 350.89" stroke="#A86B3C" stroke-width="0.4598" stroke-miterlimit="10" stroke-linecap="round" stroke-linejoin="round"/>
<path d="M291.593 337.235C291.593 337.719 291.23 338.081 290.746 338.081C290.262 338.081 289.899 337.719 289.899 337.235C289.899 336.752 290.746 334.879 290.746 334.879C290.746 334.879 291.593 336.813 291.593 337.235Z" fill="#A86B3C"/>
<path d="M300.965 337.598C300.965 338.081 300.602 338.444 300.119 338.444C299.635 338.444 299.272 338.081 299.272 337.598C299.272 337.115 300.119 335.242 300.119 335.242C300.119 335.242 300.965 337.175 300.965 337.598Z" fill="#A86B3C"/>
<path d="M296.249 336.027C296.249 336.51 295.886 336.873 295.402 336.873C294.918 336.873 294.556 336.51 294.556 336.027C294.556 335.544 295.402 333.671 295.402 333.671C295.402 333.671 296.249 335.544 296.249 336.027Z" fill="#A86B3C"/>
</g>
<mask id="mask0_9_12" style="mask-type:luminance" maskUnits="userSpaceOnUse" x="239" y="319" width="192" height="99">
<path d="M430.731 319.352H239.832V417.771H430.731V319.352Z" fill="white"/>
</mask>
<g mask="url(#mask0_9_12)">
<path opacity="0.4" d="M225.803 320.379C225.803 321.89 266.014 323.098 315.659 323.098C365.304 323.098 405.515 321.89 405.515 320.379C405.515 318.869 365.304 317.66 315.659 317.66C266.075 317.66 225.803 318.869 225.803 320.379Z" fill="url(#paint7_radial_9_12)"/>
</g>
<path d="M596.596 233.863H453.769V413.844H596.596V233.863Z" fill="url(#paint8_linear_9_12)"/>
<path d="M500.39 297.783H361.01V425.021H500.39V297.783Z" fill="url(#paint9_linear_9_12)"/>
<path d="M450.806 365.994H410.716C405.455 365.994 401.162 361.704 401.162 356.448V358.683C401.162 363.94 405.455 368.229 410.716 368.229H450.806C456.067 368.229 460.36 363.94 460.36 358.683V356.448C460.36 361.765 456.067 365.994 450.806 365.994Z" fill="#898989"/>
<path opacity="0.2" d="M401.222 356.448V358.683C401.222 363.94 405.515 368.229 410.776 368.229H450.867C456.127 368.229 460.421 363.94 460.421 358.683V356.448H401.222Z" fill="url(#paint10_linear_9_12)"/>
<path opacity="0.5" d="M449.053 341.283L447.178 336.208L445.001 341.283L442.764 336.208L440.406 341.283L438.047 336.208L435.629 341.283L433.089 336.208L430.791 341.283L428.675 336.208L426.437 341.283L424.2 336.208L421.781 341.283L419.604 336.208L417.307 341.283L414.888 336.208L412.469 341.283V297.904H449.053V341.283Z" fill="#F1F1F1"/>
<g opacity="0.5">
<path d="M396.566 386.113H376.007V406.654H396.566V386.113Z" stroke="#A86B3C" stroke-width="0.5114" stroke-miterlimit="10"/>
<path d="M383.928 391.852H381.751V401.217H383.928V391.852Z" fill="#A86B3C"/>
<path d="M382.84 390.281L380.723 392.577H384.956L382.84 390.281L380.723 392.577H384.956L382.84 390.281Z" fill="#A86B3C"/>
<path d="M390.701 391.852H388.524V401.217H390.701V391.852Z" fill="#A86B3C"/>
<path d="M389.673 390.281L387.556 392.577H391.789L389.673 390.281L387.556 392.577H391.789L389.673 390.281Z" fill="#A86B3C"/>
<path d="M393.784 402.183H378.667V403.452H393.784V402.183Z" fill="#A86B3C"/>
</g>
<g opacity="0.5">
<path d="M424.865 386.233H404.306V406.775H424.865V386.233Z" stroke="#A86B3C" stroke-width="0.5114" stroke-miterlimit="10"/>
<path d="M414.586 399.283C412.953 399.283 411.562 398.135 411.32 396.504L410.534 389.617H418.637L417.851 396.504C417.669 398.075 416.218 399.283 414.586 399.283Z" fill="#A86B3C"/>
<path d="M415.493 402.425H413.739L414.404 397.833H414.827L415.493 402.425Z" fill="#A86B3C"/>
<path d="M417.79 403.452H411.381L413.739 402.425H415.493L417.79 403.452Z" fill="#A86B3C"/>
</g>
<g opacity="0.5">
<path d="M453.225 386.294H432.666V406.835H453.225V386.294Z" stroke="#A86B3C" stroke-width="0.5114" stroke-miterlimit="10"/>
<path d="M449.839 397.894C449.234 394.631 446.392 392.094 442.945 392.094C439.499 392.094 436.657 394.571 436.052 397.894H449.839Z" fill="#A86B3C"/>
<path d="M443.369 396.806V402.667" stroke="#A86B3C" stroke-width="0.3887" stroke-miterlimit="10" stroke-linecap="round" stroke-linejoin="round"/>
<path d="M443.369 402.667C443.369 403.452 442.764 404.056 441.978 404.056C441.192 404.056 440.587 403.452 440.587 402.667" stroke="#A86B3C" stroke-width="0.3887" stroke-miterlimit="10" stroke-linecap="round" stroke-linejoin="round"/>
<path d="M439.74 391.127C439.74 391.49 439.438 391.852 439.015 391.852C438.652 391.852 438.289 391.55 438.289 391.127C438.289 390.765 439.015 389.133 439.015 389.133C439.015 389.133 439.74 390.765 439.74 391.127Z" fill="#A86B3C"/>
<path d="M447.722 391.429C447.722 391.792 447.42 392.154 446.997 392.154C446.634 392.154 446.271 391.852 446.271 391.429C446.271 391.067 446.997 389.435 446.997 389.435C446.997 389.435 447.722 391.067 447.722 391.429Z" fill="#A86B3C"/>
<path d="M443.671 390.1C443.671 390.463 443.369 390.825 442.945 390.825C442.583 390.825 442.22 390.523 442.22 390.1C442.22 389.738 442.945 388.106 442.945 388.106C442.945 388.106 443.671 389.677 443.671 390.1Z" fill="#A86B3C"/>
</g>
<path d="M538.969 252.894H470.035V273.617H538.969V252.894Z" fill="#FFDEBB"/>
<path d="M479.287 257.485H475.78V270.354H479.287V257.485Z" fill="#A86B3C"/>
<path d="M482.189 257.485H480.436V270.354H482.189V257.485Z" fill="#A86B3C"/>
<path d="M499.544 257.485H498.637V270.354H499.544V257.485Z" fill="#A86B3C"/>
<path d="M510.67 257.485H509.763V270.354H510.67V257.485Z" fill="#A86B3C"/>
<path d="M514.056 257.485H513.149V270.354H514.056V257.485Z" fill="#A86B3C"/>
<path d="M492.59 257.485H490.836V270.354H492.59V257.485Z" fill="#A86B3C"/>
<path d="M496.581 257.485H493.618V270.354H496.581V257.485Z" fill="#A86B3C"/>
<path d="M485.334 257.485H484.427V270.354H485.334V257.485Z" fill="#A86B3C"/>
<path d="M487.39 257.485H486.483V270.354H487.39V257.485Z" fill="#A86B3C"/>
<path d="M489.385 257.485H488.478V270.354H489.385V257.485Z" fill="#A86B3C"/>
<path d="M509.037 257.485H507.284V270.354H509.037V257.485Z" fill="#A86B3C"/>
<path d="M517.382 257.485H515.628V270.354H517.382V257.485Z" fill="#A86B3C"/>
<path d="M505.833 257.485H504.926V270.354H505.833V257.485Z" fill="#A86B3C"/>
<path d="M504.139 257.485H500.995V270.354H504.139V257.485Z" fill="#A86B3C"/>
<path d="M521.978 257.485H518.833V270.354H521.978V257.485Z" fill="#A86B3C"/>
<path opacity="0.4" d="M447.722 234.285C447.722 235.796 481.282 237.004 522.643 237.004C564.003 237.004 597.563 235.796 597.563 234.285C597.563 232.775 564.003 231.567 522.643 231.567C481.282 231.567 447.722 232.775 447.722 234.285Z" fill="url(#paint11_radial_9_12)"/>
<path opacity="0.4" d="M355.931 298.871C355.931 300.381 389.491 301.59 430.852 301.59C472.212 301.59 505.772 300.381 505.772 298.871C505.772 297.36 472.212 296.152 430.852 296.152C389.491 296.092 355.931 297.36 355.931 298.871Z" fill="url(#paint12_radial_9_12)"/>
<mask id="mask1_9_12" style="mask-type:luminance" maskUnits="userSpaceOnUse" x="226" y="268" width="103" height="33">
<path d="M312.273 300.321H242.613C233.906 300.321 226.831 293.252 226.831 284.552C226.831 275.852 233.906 268.783 242.613 268.783H312.273C320.98 268.783 328.055 275.852 328.055 284.552C327.995 293.313 320.98 300.321 312.273 300.321Z" fill="white"/>
</mask>
<g mask="url(#mask1_9_12)">
<path opacity="0.4" d="M203.49 269.569C203.49 271.079 237.05 272.288 278.41 272.288C319.771 272.288 353.331 271.079 353.331 269.569C353.331 268.058 319.771 266.85 278.41 266.85C237.05 266.85 203.49 268.058 203.49 269.569Z" fill="url(#paint13_radial_9_12)"/>
</g>
<g opacity="0.1">
<path d="M481.827 16.9667H242.795V4.15835C242.795 1.98335 244.548 0.291687 246.665 0.291687H477.896C480.073 0.291687 481.766 2.04377 481.766 4.15835V16.9667H481.827Z" fill="#F15A24"/>
<mask id="mask2_9_12" style="mask-type:luminance" maskUnits="userSpaceOnUse" x="242" y="0" width="240" height="17">
<path d="M481.827 16.9667H242.795V4.15835C242.795 1.98335 244.548 0.291687 246.665 0.291687H477.896C480.073 0.291687 481.766 2.04377 481.766 4.15835V16.9667H481.827Z" fill="white"/>
</mask>
<g mask="url(#mask2_9_12)">
<path opacity="0.4" d="M222.477 0.7146C222.477 2.22502 290.383 3.43335 374.193 3.43335C458.002 3.43335 525.908 2.22502 525.908 0.7146C525.908 -0.795817 458.002 -2.00415 374.193 -2.00415C290.383 -2.00415 222.477 -0.795817 222.477 0.7146Z" fill="#F15A24"/>
</g>
</g>
<defs>
<radialGradient id="paint0_radial_9_12" cx="0" cy="0" r="1" gradientUnits="userSpaceOnUse" gradientTransform="translate(339 374.961) scale(462.012 63.496)">
<stop offset="0.2142" stop-opacity="0.7"/>
<stop offset="0.2582" stop-color="#202020" stop-opacity="0.6607"/>
<stop offset="0.3372" stop-color="#545454" stop-opacity="0.5904"/>
<stop offset="0.4196" stop-color="#828282" stop-opacity="0.517"/>
<stop offset="0.504" stop-color="#A8A8A8" stop-opacity="0.4419"/>
<stop offset="0.5908" stop-color="#C8C8C8" stop-opacity="0.3645"/>
<stop offset="0.6807" stop-color="#E0E0E0" stop-opacity="0.2844"/>
<stop offset="0.7752" stop-color="#F1F1F1" stop-opacity="0.2003"/>
<stop offset="0.8771" stop-color="#FCFCFC" stop-opacity="0.1095"/>
<stop offset="1" stop-color="white" stop-opacity="0"/>
</radialGradient>
<linearGradient id="paint1_linear_9_12" x1="139.101" y1="363.743" x2="593.282" y2="363.743" gradientUnits="userSpaceOnUse">
<stop stop-color="white"/>
<stop offset="0.218" stop-color="#B3B2AF"/>
<stop offset="0.3496" stop-color="white"/>
<stop offset="0.4739" stop-color="#6E6964"/>
<stop offset="0.6306" stop-color="white"/>
<stop offset="0.7946" stop-color="#6E6964"/>
<stop offset="1" stop-color="#B3B2AF"/>
</linearGradient>
<linearGradient id="paint2_linear_9_12" x1="139.101" y1="371.86" x2="593.282" y2="371.86" gradientUnits="userSpaceOnUse">
<stop stop-color="#6E6964"/>
<stop offset="0.218"/>
<stop offset="0.3496"/>
<stop offset="0.4739" stop-color="#4A423B"/>
<stop offset="0.6306"/>
<stop offset="0.7946" stop-color="#4A423B"/>
<stop offset="1"/>
</linearGradient>
<radialGradient id="paint3_radial_9_12" cx="0" cy="0" r="1" gradientUnits="userSpaceOnUse" gradientTransform="translate(443.509 297.98) scale(78.7004 78.6329)">
<stop stop-color="#A17904"/>
<stop offset="0.1406" stop-color="#AC8921" stop-opacity="0.8594"/>
<stop offset="0.4467" stop-color="#C8B06C" stop-opacity="0.5533"/>
<stop offset="0.8919" stop-color="#F4EFE1" stop-opacity="0.1081"/>
<stop offset="1" stop-color="white" stop-opacity="0"/>
</radialGradient>
<radialGradient id="paint4_radial_9_12" cx="0" cy="0" r="1" gradientUnits="userSpaceOnUse" gradientTransform="translate(366.809 324.672) rotate(35.28) scale(78.6779 78.6555)">
<stop stop-color="#A17904"/>
<stop offset="0.1406" stop-color="#AC8921" stop-opacity="0.8594"/>
<stop offset="0.4467" stop-color="#C8B06C" stop-opacity="0.5533"/>
<stop offset="0.8919" stop-color="#F4EFE1" stop-opacity="0.1081"/>
<stop offset="1" stop-color="white" stop-opacity="0"/>
</radialGradient>
<radialGradient id="paint5_radial_9_12" cx="0" cy="0" r="1" gradientUnits="userSpaceOnUse" gradientTransform="translate(397.008 420.507) scale(239.393 239.188)">
<stop stop-color="#4D4D4D"/>
<stop offset="1" stop-color="#FFC790" stop-opacity="0"/>
</radialGradient>
<linearGradient id="paint6_linear_9_12" x1="266.239" y1="240.662" x2="348.739" y2="393.764" gradientUnits="userSpaceOnUse">
<stop offset="5e-08" stop-color="#FFC88A"/>
<stop offset="0.2111" stop-color="#FAC487"/>
<stop offset="0.4519" stop-color="#EDB67F"/>
<stop offset="0.7073" stop-color="#D6A171"/>
<stop offset="0.9712" stop-color="#B6835E"/>
<stop offset="1" stop-color="#B27F5C"/>
</linearGradient>
<radialGradient id="paint7_radial_9_12" cx="0" cy="0" r="1" gradientUnits="userSpaceOnUse" gradientTransform="translate(315.683 320.378) rotate(180) scale(89.869 2.73828)">
<stop stop-color="white"/>
<stop offset="0.1263" stop-color="#E6E6E6"/>
<stop offset="0.3961" stop-color="#A4A4A4"/>
<stop offset="0.7845" stop-color="#3C3C3C"/>
<stop offset="1"/>
</radialGradient>
<linearGradient id="paint8_linear_9_12" x1="470.419" y1="132.395" x2="545.239" y2="394.491" gradientUnits="userSpaceOnUse">
<stop offset="5e-08" stop-color="#FFC88A"/>
<stop offset="0.2111" stop-color="#FAC487"/>
<stop offset="0.4519" stop-color="#EDB67F"/>
<stop offset="0.7073" stop-color="#D6A171"/>
<stop offset="0.9712" stop-color="#B6835E"/>
<stop offset="1" stop-color="#B27F5C"/>
</linearGradient>
<linearGradient id="paint9_linear_9_12" x1="430.688" y1="306.196" x2="430.688" y2="422.764" gradientUnits="userSpaceOnUse">
<stop offset="5e-08" stop-color="#FFC88A"/>
<stop offset="0.2111" stop-color="#FAC487"/>
<stop offset="0.4519" stop-color="#EDB67F"/>
<stop offset="0.7073" stop-color="#D6A171"/>
<stop offset="0.9712" stop-color="#B6835E"/>
<stop offset="1" stop-color="#B27F5C"/>
</linearGradient>
<linearGradient id="paint10_linear_9_12" x1="430.781" y1="355.358" x2="430.781" y2="365.523" gradientUnits="userSpaceOnUse">
<stop offset="5e-08" stop-color="#FFC790" stop-opacity="0"/>
<stop offset="0.2574" stop-color="#EDB47E" stop-opacity="0.2574"/>
<stop offset="0.7783" stop-color="#BE8251" stop-opacity="0.7783"/>
<stop offset="1" stop-color="#A86B3C"/>
</linearGradient>
<radialGradient id="paint11_radial_9_12" cx="0" cy="0" r="1" gradientUnits="userSpaceOnUse" gradientTransform="translate(522.621 234.272) rotate(180) scale(74.8936 2.73834)">
<stop stop-color="white"/>
<stop offset="0.1263" stop-color="#E6E6E6"/>
<stop offset="0.3961" stop-color="#A4A4A4"/>
<stop offset="0.7845" stop-color="#3C3C3C"/>
<stop offset="1"/>
</radialGradient>
<radialGradient id="paint12_radial_9_12" cx="0" cy="0" r="1" gradientUnits="userSpaceOnUse" gradientTransform="translate(430.84 298.851) rotate(180) scale(74.8936 2.73834)">
<stop stop-color="white"/>
<stop offset="0.1263" stop-color="#E6E6E6"/>
<stop offset="0.3961" stop-color="#A4A4A4"/>
<stop offset="0.7845" stop-color="#3C3C3C"/>
<stop offset="1"/>
</radialGradient>
<radialGradient id="paint13_radial_9_12" cx="0" cy="0" r="1" gradientUnits="userSpaceOnUse" gradientTransform="translate(278.41 269.576) rotate(180) scale(74.8936 2.73834)">
<stop stop-color="white"/>
<stop offset="0.1263" stop-color="#E6E6E6"/>
<stop offset="0.3961" stop-color="#A4A4A4"/>
<stop offset="0.7845" stop-color="#3C3C3C"/>
<stop offset="1"/>
</radialGradient>
</defs>
</svg>
