<svg width="137" height="28" viewBox="0 0 137 28" fill="none" xmlns="http://www.w3.org/2000/svg">
<path d="M7.06 20.682C5.79467 20.682 4.65067 20.4653 3.628 20.032C2.62267 19.5987 1.82533 18.9747 1.236 18.16C0.646667 17.3453 0.343333 16.3833 0.326 15.274H4.226C4.278 16.0193 4.538 16.6087 5.006 17.042C5.49133 17.4753 6.15 17.692 6.982 17.692C7.83133 17.692 8.49867 17.4927 8.984 17.094C9.46933 16.678 9.712 16.1407 9.712 15.482C9.712 14.9447 9.54733 14.5027 9.218 14.156C8.88867 13.8093 8.47267 13.5407 7.97 13.35C7.48467 13.142 6.80867 12.9167 5.942 12.674C4.76333 12.3273 3.80133 11.9893 3.056 11.66C2.328 11.3133 1.69533 10.802 1.158 10.126C0.638 9.43267 0.378 8.514 0.378 7.37C0.378 6.29533 0.646667 5.35933 1.184 4.562C1.72133 3.76467 2.47533 3.158 3.446 2.742C4.41667 2.30867 5.526 2.092 6.774 2.092C8.646 2.092 10.1627 2.55133 11.324 3.47C12.5027 4.37133 13.1527 5.63667 13.274 7.266H9.27C9.23533 6.642 8.96667 6.13067 8.464 5.732C7.97867 5.316 7.32867 5.108 6.514 5.108C5.80333 5.108 5.23133 5.29 4.798 5.654C4.382 6.018 4.174 6.54667 4.174 7.24C4.174 7.72533 4.33 8.13267 4.642 8.462C4.97133 8.774 5.37 9.034 5.838 9.242C6.32333 9.43267 6.99933 9.658 7.866 9.918C9.04467 10.2647 10.0067 10.6113 10.752 10.958C11.4973 11.3047 12.1387 11.8247 12.676 12.518C13.2133 13.2113 13.482 14.1213 13.482 15.248C13.482 16.2187 13.2307 17.12 12.728 17.952C12.2253 18.784 11.4887 19.4513 10.518 19.954C9.54733 20.4393 8.39467 20.682 7.06 20.682ZM30.0278 12.986C30.0278 13.506 29.9931 13.974 29.9238 14.39H19.3938C19.4804 15.43 19.8444 16.2447 20.4858 16.834C21.1271 17.4233 21.9158 17.718 22.8518 17.718C24.2038 17.718 25.1658 17.1373 25.7378 15.976H29.6638C29.2478 17.3627 28.4504 18.5067 27.2718 19.408C26.0931 20.292 24.6458 20.734 22.9298 20.734C21.5431 20.734 20.2951 20.4307 19.1858 19.824C18.0938 19.2 17.2358 18.3247 16.6118 17.198C16.0051 16.0713 15.7017 14.7713 15.7017 13.298C15.7017 11.8073 16.0051 10.4987 16.6118 9.372C17.2184 8.24533 18.0678 7.37867 19.1598 6.772C20.2518 6.16533 21.5084 5.862 22.9298 5.862C24.2991 5.862 25.5211 6.15667 26.5958 6.746C27.6878 7.33533 28.5284 8.176 29.1178 9.268C29.7244 10.3427 30.0278 11.582 30.0278 12.986ZM26.2578 11.946C26.2404 11.01 25.9024 10.2647 25.2438 9.71C24.5851 9.138 23.7791 8.852 22.8258 8.852C21.9244 8.852 21.1618 9.12933 20.5378 9.684C19.9311 10.2213 19.5584 10.9753 19.4198 11.946H26.2578ZM34.5306 4.38C33.8893 4.38 33.352 4.18067 32.9186 3.782C32.5026 3.366 32.2946 2.85467 32.2946 2.248C32.2946 1.64133 32.5026 1.13867 32.9186 0.739999C33.352 0.323999 33.8893 0.115999 34.5306 0.115999C35.172 0.115999 35.7006 0.323999 36.1166 0.739999C36.55 1.13867 36.7666 1.64133 36.7666 2.248C36.7666 2.85467 36.55 3.366 36.1166 3.782C35.7006 4.18067 35.172 4.38 34.5306 4.38ZM36.3246 6.096V20.5H32.6846V6.096H36.3246ZM46.525 9.086H44.003V20.5H40.311V9.086H38.673V6.096H40.311V5.368C40.311 3.6 40.8136 2.3 41.819 1.468C42.8243 0.635999 44.341 0.245999 46.369 0.298V3.366C45.485 3.34867 44.8696 3.496 44.523 3.808C44.1763 4.12 44.003 4.68333 44.003 5.498V6.096H46.525V9.086ZM55.2278 2.352C57.1345 2.352 58.8072 2.72467 60.2458 3.47C61.7018 4.21533 62.8198 5.28133 63.5998 6.668C64.3972 8.03733 64.7958 9.632 64.7958 11.452C64.7958 13.272 64.3972 14.8667 63.5998 16.236C62.8198 17.588 61.7018 18.6367 60.2458 19.382C58.8072 20.1273 57.1345 20.5 55.2278 20.5H48.8838V2.352H55.2278ZM55.0978 17.406C57.0045 17.406 58.4778 16.886 59.5178 15.846C60.5578 14.806 61.0778 13.3413 61.0778 11.452C61.0778 9.56267 60.5578 8.08933 59.5178 7.032C58.4778 5.95733 57.0045 5.42 55.0978 5.42H52.5238V17.406H55.0978ZM80.9106 12.986C80.9106 13.506 80.8759 13.974 80.8066 14.39H70.2766C70.3632 15.43 70.7272 16.2447 71.3686 16.834C72.0099 17.4233 72.7986 17.718 73.7346 17.718C75.0866 17.718 76.0486 17.1373 76.6206 15.976H80.5466C80.1306 17.3627 79.3332 18.5067 78.1546 19.408C76.9759 20.292 75.5286 20.734 73.8126 20.734C72.4259 20.734 71.1779 20.4307 70.0686 19.824C68.9766 19.2 68.1186 18.3247 67.4946 17.198C66.8879 16.0713 66.5846 14.7713 66.5846 13.298C66.5846 11.8073 66.8879 10.4987 67.4946 9.372C68.1012 8.24533 68.9506 7.37867 70.0426 6.772C71.1346 6.16533 72.3912 5.862 73.8126 5.862C75.1819 5.862 76.4039 6.15667 77.4786 6.746C78.5706 7.33533 79.4112 8.176 80.0006 9.268C80.6072 10.3427 80.9106 11.582 80.9106 12.986ZM77.1406 11.946C77.1232 11.01 76.7852 10.2647 76.1266 9.71C75.4679 9.138 74.6619 8.852 73.7086 8.852C72.8072 8.852 72.0446 9.12933 71.4206 9.684C70.8139 10.2213 70.4412 10.9753 70.3026 11.946H77.1406ZM89.0794 20.734C87.9008 20.734 86.8434 20.526 85.9074 20.11C84.9714 19.6767 84.2261 19.096 83.6714 18.368C83.1341 17.64 82.8394 16.834 82.7874 15.95H86.4534C86.5228 16.5047 86.7914 16.964 87.2594 17.328C87.7448 17.692 88.3428 17.874 89.0534 17.874C89.7468 17.874 90.2841 17.7353 90.6654 17.458C91.0641 17.1807 91.2634 16.8253 91.2634 16.392C91.2634 15.924 91.0208 15.5773 90.5354 15.352C90.0674 15.1093 89.3134 14.8493 88.2734 14.572C87.1988 14.312 86.3148 14.0433 85.6214 13.766C84.9454 13.4887 84.3561 13.064 83.8534 12.492C83.3681 11.92 83.1254 11.1487 83.1254 10.178C83.1254 9.38067 83.3508 8.65267 83.8014 7.994C84.2694 7.33533 84.9281 6.81533 85.7774 6.434C86.6441 6.05267 87.6581 5.862 88.8194 5.862C90.5354 5.862 91.9048 6.29533 92.9274 7.162C93.9501 8.01133 94.5134 9.164 94.6174 10.62H91.1334C91.0814 10.048 90.8388 9.59733 90.4054 9.268C89.9894 8.92133 89.4261 8.748 88.7154 8.748C88.0568 8.748 87.5454 8.86933 87.1814 9.112C86.8348 9.35467 86.6614 9.69267 86.6614 10.126C86.6614 10.6113 86.9041 10.984 87.3894 11.244C87.8748 11.4867 88.6288 11.738 89.6514 11.998C90.6914 12.258 91.5494 12.5267 92.2254 12.804C92.9014 13.0813 93.4821 13.5147 93.9674 14.104C94.4701 14.676 94.7301 15.4387 94.7474 16.392C94.7474 17.224 94.5134 17.9693 94.0454 18.628C93.5948 19.2867 92.9361 19.8067 92.0694 20.188C91.2201 20.552 90.2234 20.734 89.0794 20.734ZM99.5814 4.38C98.9401 4.38 98.4027 4.18067 97.9694 3.782C97.5534 3.366 97.3454 2.85467 97.3454 2.248C97.3454 1.64133 97.5534 1.13867 97.9694 0.739999C98.4027 0.323999 98.9401 0.115999 99.5814 0.115999C100.223 0.115999 100.751 0.323999 101.167 0.739999C101.601 1.13867 101.817 1.64133 101.817 2.248C101.817 2.85467 101.601 3.366 101.167 3.782C100.751 4.18067 100.223 4.38 99.5814 4.38ZM101.375 6.096V20.5H97.7354V6.096H101.375ZM110.614 5.862C111.688 5.862 112.633 6.07867 113.448 6.512C114.262 6.928 114.904 7.474 115.372 8.15V6.096H119.038V20.604C119.038 21.9387 118.769 23.126 118.232 24.166C117.694 25.2233 116.888 26.0553 115.814 26.662C114.739 27.286 113.439 27.598 111.914 27.598C109.868 27.598 108.187 27.1213 106.87 26.168C105.57 25.2147 104.833 23.9147 104.66 22.268H108.274C108.464 22.9267 108.872 23.4467 109.496 23.828C110.137 24.2267 110.908 24.426 111.81 24.426C112.867 24.426 113.725 24.1053 114.384 23.464C115.042 22.84 115.372 21.8867 115.372 20.604V18.368C114.904 19.044 114.254 19.6073 113.422 20.058C112.607 20.5087 111.671 20.734 110.614 20.734C109.4 20.734 108.291 20.422 107.286 19.798C106.28 19.174 105.483 18.2987 104.894 17.172C104.322 16.028 104.036 14.7193 104.036 13.246C104.036 11.79 104.322 10.4987 104.894 9.372C105.483 8.24533 106.272 7.37867 107.26 6.772C108.265 6.16533 109.383 5.862 110.614 5.862ZM115.372 13.298C115.372 12.414 115.198 11.66 114.852 11.036C114.505 10.3947 114.037 9.90933 113.448 9.58C112.858 9.23333 112.226 9.06 111.55 9.06C110.874 9.06 110.25 9.22467 109.678 9.554C109.106 9.88333 108.638 10.3687 108.274 11.01C107.927 11.634 107.754 12.3793 107.754 13.246C107.754 14.1127 107.927 14.8753 108.274 15.534C108.638 16.1753 109.106 16.6693 109.678 17.016C110.267 17.3627 110.891 17.536 111.55 17.536C112.226 17.536 112.858 17.3713 113.448 17.042C114.037 16.6953 114.505 16.21 114.852 15.586C115.198 14.9447 115.372 14.182 115.372 13.298ZM130.575 5.888C132.291 5.888 133.677 6.434 134.735 7.526C135.792 8.60067 136.321 10.1087 136.321 12.05V20.5H132.681V12.544C132.681 11.4 132.395 10.5247 131.823 9.918C131.251 9.294 130.471 8.982 129.483 8.982C128.477 8.982 127.68 9.294 127.091 9.918C126.519 10.5247 126.233 11.4 126.233 12.544V20.5H122.593V6.096H126.233V7.89C126.718 7.266 127.333 6.78067 128.079 6.434C128.841 6.07 129.673 5.888 130.575 5.888Z" fill="white"/>
</svg>
