<svg width="91" height="87" viewBox="0 0 91 87" fill="none" xmlns="http://www.w3.org/2000/svg">
<path d="M33.7492 4.96746C33.1485 5.33804 32.7029 5.91324 32.4952 6.5864C32.2874 7.25957 32.3315 7.98502 32.6193 8.62823C32.9071 9.27145 33.4191 9.78878 34.0603 10.0843C34.7015 10.3798 35.4284 10.4335 36.1062 10.2353C37.8101 9.38314 39.5619 8.63003 41.353 7.97973C44.666 6.88105 43.5422 1.79513 39.8936 2.39904C37.768 3.04505 35.7141 3.90565 33.7638 4.96746H33.7492ZM39.1054 43.3484V38.83L45.9066 31.9032C46.2924 31.5248 46.6555 31.1239 46.9939 30.7027C47.2788 30.371 47.5237 30.0071 47.7236 29.6186C47.8874 29.2779 47.9722 28.9049 47.9717 28.5272C47.9873 28.1752 47.9066 27.8256 47.7382 27.5158C47.5726 27.2442 47.313 27.0423 47.0085 26.9483C46.6055 26.8196 46.1835 26.7606 45.7606 26.7736H39.4557V22.2552C40.419 22.037 41.4917 21.8405 42.6811 21.6513C44.0489 21.4554 45.4296 21.363 46.8114 21.3748C48.2057 21.3179 49.5956 21.5663 50.8833 22.1024C51.8221 22.5145 52.5774 23.2546 53.0069 24.1834C53.4562 25.2484 53.6702 26.3973 53.6344 27.5522C53.647 28.4374 53.5189 29.319 53.255 30.1643C52.9988 30.9425 52.6274 31.6782 52.1531 32.3471C51.6297 33.0801 51.0437 33.7666 50.4017 34.3989L46.6363 38.2406H54.2255V43.3338L39.1054 43.3484ZM65.3758 43.3484V39.3247H56.298L55.2982 36.8291L61.625 21.5495H67.4629L62.0993 34.5153H65.3904V31.2848L66.4777 28.4689H71.0969V34.5153H72.8629V38.4443L71.0969 39.3247V43.3484H65.3758ZM22.4894 40.2051C25.1363 45.1273 28.4028 49.6923 32.2095 53.7894C36.6486 58.4306 41.8637 62.2665 47.6214 65.1254C47.8242 65.2336 48.0485 65.2956 48.2781 65.3069C48.5078 65.3183 48.7371 65.2786 48.9495 65.1909C49.653 64.873 50.2838 64.4149 50.8031 63.8449C51.404 63.1925 51.9622 62.5023 52.4742 61.7785C54.9479 58.5334 58.0128 54.5025 62.3401 56.5179L62.6028 56.6562L77.0297 64.929L77.1756 65.0236C78.0602 65.6577 78.7714 66.5027 79.2443 67.4813C79.7172 68.46 79.9367 69.5411 79.8829 70.6261C79.7842 73.1406 79.0595 75.591 77.774 77.7566C76.1805 80.4897 73.7437 82.6361 70.8269 83.8757C68.0969 85.0455 65.2154 85.8268 62.2672 86.1967C57.8819 86.8355 53.4081 86.4621 49.1904 85.1053C44.5611 83.5575 40.1475 81.4305 36.0552 78.7752L35.7268 78.5642C33.5814 77.24 31.2754 75.8139 29.0205 74.1331C20.7162 67.8976 12.2805 58.8535 6.78558 48.98C2.18097 40.6562 -0.336613 31.6704 1.04258 23.1138C1.77232 18.4208 3.82286 14.1498 7.34018 11.3267C10.4051 8.86012 14.5426 7.51406 19.8989 7.987C20.2005 8.00608 20.4924 8.10078 20.7475 8.26231C21.0027 8.42384 21.2128 8.64699 21.3583 8.91106L30.5822 24.5108C31.2005 25.2141 31.6029 26.0798 31.7413 27.0049C31.8798 27.9299 31.7484 28.8751 31.363 29.7277C30.5518 31.3337 29.3312 32.6988 27.8238 33.6858C27.3203 34.1151 26.7292 34.5371 26.1089 34.9882C24.0438 36.4798 21.6867 38.2115 22.4967 40.2561V40.2051H22.4894ZM79.9705 55.9577C79.6557 56.5696 79.5684 57.2729 79.7241 57.9429C79.8798 58.6129 80.2684 59.2063 80.821 59.6179C81.3737 60.0294 82.0547 60.2325 82.7432 60.1911C83.4317 60.1498 84.0833 59.8667 84.5824 59.3919C84.725 59.2347 84.8521 59.0641 84.9619 58.8826C86.0121 57.0421 86.8821 55.1051 87.5597 53.0982C87.7606 52.4362 87.7184 51.7244 87.4407 51.0906C87.1631 50.4568 86.6681 49.9422 86.0445 49.6392C85.4209 49.3362 84.7095 49.2646 84.0378 49.4371C83.366 49.6096 82.7778 50.015 82.3786 50.5807C82.2595 50.7733 82.1616 50.9783 82.0867 51.1919C81.5297 52.8431 80.8188 54.4387 79.9632 55.9577H79.9705ZM84.4584 40.6271C84.4299 41.3237 84.6532 42.0072 85.0876 42.5535C85.5219 43.0998 86.1385 43.4724 86.8251 43.6037C87.5118 43.735 88.2229 43.6162 88.8291 43.2689C89.4353 42.9216 89.8963 42.3689 90.1284 41.7113C90.183 41.5236 90.2197 41.3311 90.2378 41.1365C90.3909 39.0278 90.3616 36.91 90.1503 34.8063C90.0623 34.1434 89.7481 33.5309 89.2605 33.0718C88.7729 32.6127 88.1415 32.335 87.4727 32.2855C86.8039 32.2359 86.1383 32.4176 85.588 32.7998C85.0377 33.1821 84.6362 33.7416 84.451 34.3843C84.3717 34.7202 84.347 35.0666 84.3781 35.4102C84.5578 37.1435 84.5847 38.8892 84.4584 40.6271ZM81.5978 25.1875C81.9658 25.8008 82.5472 26.2577 83.2313 26.4711C83.9154 26.6844 84.6544 26.6394 85.3073 26.3444C85.9602 26.0495 86.4815 25.5253 86.7717 24.8718C87.0619 24.2183 87.1009 23.4812 86.8811 22.8009C86.0128 20.8967 84.9851 19.0688 83.8089 17.3367C83.618 16.9736 83.3525 16.6549 83.0295 16.4013C82.7066 16.1478 82.3335 15.9651 81.9349 15.8652C81.5362 15.7653 81.1209 15.7505 80.7161 15.8218C80.3113 15.893 79.9261 16.0488 79.5859 16.2787C79.2456 16.5087 78.9579 16.8077 78.7416 17.1562C78.5252 17.5047 78.3852 17.8949 78.3305 18.3011C78.2759 18.7073 78.308 19.1205 78.4246 19.5135C78.5412 19.9065 78.7397 20.2706 79.0072 20.5818C79.9975 22.0426 80.8641 23.5832 81.5978 25.1875ZM71.7099 12.9201C74.7529 15.1393 78.2775 10.7373 75.198 8.29987C73.5217 7.04757 71.7476 5.93079 69.8929 4.96019C66.9156 3.4104 64.0185 7.46313 66.6966 9.7478C66.8572 9.87916 67.0308 9.99375 67.2148 10.0898C68.7869 10.9114 70.2902 11.8579 71.7099 12.9201ZM57.1153 6.72098C57.804 6.82177 58.5062 6.6738 59.0952 6.30377C59.6842 5.93374 60.1211 5.36601 60.3272 4.70302C60.5333 4.04003 60.4949 3.32543 60.2191 2.68815C59.9432 2.05086 59.448 1.53286 58.8228 1.2276C58.5903 1.12148 58.345 1.04567 58.0931 1.00204C56.0193 0.677221 53.9239 0.509394 51.8247 0.5C51.0505 0.5 50.3081 0.806631 49.7607 1.35244C49.2133 1.89824 48.9058 2.63851 48.9058 3.4104C48.9058 4.18229 49.2133 4.92256 49.7607 5.46836C50.3081 6.01417 51.0505 6.3208 51.8247 6.3208C53.6015 6.33515 55.3747 6.48107 57.1298 6.75736L57.1153 6.72098Z" fill="white"/>
</svg>
