<svg width="73" height="87" viewBox="0 0 73 87" fill="none" xmlns="http://www.w3.org/2000/svg">
<path fill-rule="evenodd" clip-rule="evenodd" d="M66.2802 5.75647C66.7655 5.68558 67.2606 5.77924 67.686 6.02237C68.0648 6.18951 68.387 6.462 68.614 6.8071C68.8409 7.15219 68.9629 7.5552 68.9653 7.96766L69.1059 27.6725H69.0426H68.9794H68.9442H68.9091H68.8739H68.0094H65.2118H65.1485H65.0853H65.022H64.9588L64.8463 11.9142L51.4911 20.3112V49.5535C50.3861 50.3246 49.2334 51.0257 48.0399 51.6527L47.1894 50.3792V20.5981L29.7715 18.4079L29.1318 36.9651L22.2223 32.2698L15.3057 36.1604L16.7115 16.7495L4.97307 15.259V55.0325L32.7377 58.1044L31.9013 62.3028L2.71676 59.091C2.16478 59.064 1.64441 58.8266 1.26357 58.4279C0.882728 58.0293 0.670647 57.4999 0.671312 56.9498V12.8659C0.665125 12.4435 0.783747 12.0287 1.01244 11.6728C1.24113 11.317 1.56981 11.036 1.95762 10.8646L25.1253 0.690316C25.484 0.529072 25.8802 0.468578 26.271 0.515379L66.2802 5.75647ZM34.9027 80.4752L40.6594 51.3588L46.4935 60.1126C59.0614 55.0955 66.1185 46.8105 67.1659 34.0611C77.4915 52.0306 71.2216 68.1387 58.1406 77.5713L64.0942 86.5L34.9027 80.4752ZM46.0858 7.42886L33.4336 14.5732L48.7709 16.5185L60.3126 9.28318L46.0858 7.42886ZM20.1276 12.8799L32.4003 5.63751L26.3132 4.8468L10.6877 11.7113L20.1276 12.9079V12.8799Z" fill="white"/>
</svg>
